<svg width="576" height="169" viewBox="0 0 576 169" fill="none" xmlns="http://www.w3.org/2000/svg">
<path d="M49.4406 9.58516L14.4203 106H0.107001L40.4312 0.212509H49.6586L49.4406 9.58516ZM78.7937 106L43.7007 9.58516L43.4828 0.212509H52.7101L93.1796 106H78.7937ZM76.9773 66.8383V78.318H17.5445V66.8383H76.9773ZM122.387 0.212509V106H108.365V0.212509H122.387ZM145.855 55.2133C145.855 52.1133 146.921 49.5219 149.052 47.4391C151.232 45.3078 154.138 44.2422 157.771 44.2422C161.355 44.2422 164.213 45.3078 166.344 47.4391C168.524 49.5219 169.614 52.1133 169.614 55.2133C169.614 58.2648 168.524 60.832 166.344 62.9148C164.213 64.9977 161.355 66.0391 157.771 66.0391C154.138 66.0391 151.232 64.9977 149.052 62.9148C146.921 60.832 145.855 58.2648 145.855 55.2133ZM205.66 73.5616C204.172 75.6448 202.932 77.976 201.94 80.5552C201.047 83.0352 200.253 85.664 199.559 88.4416C198.864 91.12 198.269 93.848 197.773 96.6256C197.376 99.304 196.93 101.883 196.434 104.363C196.236 104.958 195.442 105.355 194.053 105.554C192.764 105.752 191.821 105.851 191.226 105.851C189.44 105.851 187.952 105.752 186.762 105.554C185.671 105.355 184.828 104.909 184.232 104.214C183.637 103.421 183.191 102.28 182.893 100.792C182.596 99.2048 182.348 97.1216 182.149 94.5424L184.084 50.3488C184.084 49.0592 184.778 48.4144 186.167 48.4144C186.663 48.4144 187.357 48.5136 188.25 48.712C189.143 48.8112 190.085 49.0096 191.077 49.3072C192.069 49.6048 192.912 50.0016 193.607 50.4976C194.301 50.8944 194.648 51.3904 194.648 51.9856V82.192C194.748 82.0928 194.896 81.696 195.095 81.0016C195.789 79.216 196.632 77.0336 197.624 74.4544C198.616 71.776 199.708 69.2464 200.898 66.8656C202.088 64.4848 203.328 62.4512 204.618 60.7648C206.007 59.0784 207.396 58.2352 208.784 58.2352C210.57 58.2352 211.909 58.6816 212.802 59.5744C213.794 60.368 214.538 61.4096 215.034 62.6992C215.53 63.9888 215.828 65.3776 215.927 66.8656C216.026 68.3536 216.076 69.792 216.076 71.1808C216.076 72.1728 215.976 73.8096 215.778 76.0912C215.58 78.3728 215.48 81.7952 215.48 86.3584C215.48 88.9376 215.728 91.2688 216.224 93.352C216.72 95.4352 217.712 96.4768 219.2 96.4768C220.292 96.4768 221.284 95.9808 222.176 94.9888C223.069 93.9968 223.863 92.7568 224.557 91.2688C225.351 89.7808 225.996 88.1936 226.492 86.5072C226.988 84.8208 227.285 83.2336 227.384 81.7456C227.484 79.8608 228.228 78.9184 229.616 78.9184C230.509 78.9184 231.104 79.216 231.402 79.8112C231.7 80.4064 231.848 81.1008 231.848 81.8944V82.192C231.749 84.176 231.352 86.408 230.658 88.888C230.063 91.368 229.12 93.6992 227.831 95.8816C226.64 98.064 225.053 99.8992 223.069 101.387C221.085 102.875 218.655 103.619 215.778 103.619C211.314 103.619 208.437 102.032 207.148 98.8576C205.957 95.584 205.362 90.7728 205.362 84.424L205.66 73.5616ZM263.645 96.7744C263.645 99.1552 262.852 100.99 261.264 102.28C259.677 103.57 257.842 104.512 255.759 105.107C253.775 105.702 251.741 106.05 249.658 106.149C247.674 106.347 246.236 106.446 245.343 106.446C243.954 106.446 242.218 106.298 240.135 106C238.151 105.702 236.167 105.256 234.183 104.661C232.298 103.966 230.661 103.024 229.272 101.834C227.983 100.643 227.338 99.1552 227.338 97.3696C227.338 96.2784 227.735 95.5344 228.528 95.1376C229.421 94.6416 230.264 94.3936 231.058 94.3936C232.149 94.3936 233.191 94.7904 234.183 95.584C235.274 96.3776 236.365 97.2208 237.456 98.1136C238.647 99.0064 239.936 99.8496 241.325 100.643C242.714 101.437 244.301 101.834 246.087 101.834C246.88 101.834 247.922 101.586 249.212 101.09C250.6 100.494 251.295 99.5024 251.295 98.1136C251.295 96.7248 250.7 95.3856 249.509 94.096C248.418 92.8064 246.98 91.4672 245.194 90.0784C243.508 88.6896 241.672 87.2512 239.688 85.7632C237.704 84.2752 235.82 82.688 234.034 81.0016C232.348 79.216 230.909 77.2816 229.719 75.1984C228.628 73.1152 228.082 70.8336 228.082 68.3536C228.082 64.8816 229.173 61.9552 231.356 59.5744C233.637 57.1936 236.266 55.3088 239.242 53.92C242.317 52.5312 245.442 51.5392 248.616 50.944C251.791 50.3488 254.271 50.0512 256.056 50.0512C257.743 50.0512 259.429 50.3984 261.116 51.0928C262.802 51.7872 263.645 53.1264 263.645 55.1104C263.645 55.7056 263.496 56.5984 263.199 57.7888C263 58.88 262.604 59.9712 262.008 61.0624C261.512 62.1536 260.818 63.1456 259.925 64.0384C259.032 64.832 257.892 65.2288 256.503 65.2288C256.106 65.2288 255.709 65.08 255.312 64.7824C254.916 64.3856 254.469 63.9888 253.973 63.592C253.477 63.096 252.932 62.6992 252.336 62.4016C251.84 62.0048 251.245 61.8064 250.551 61.8064C247.079 61.8064 244.648 62.848 243.26 64.9312C241.871 66.9152 241.176 69.048 241.176 71.3296C241.176 73.3136 242.317 75.3968 244.599 77.5792C246.98 79.7616 249.559 81.944 252.336 84.1264C255.213 86.3088 257.792 88.4912 260.074 90.6736C262.455 92.7568 263.645 94.7904 263.645 96.7744ZM266.85 79.0672C266.949 74.008 267.098 68.8496 267.297 63.592C267.495 58.3344 267.693 53.4736 267.892 49.0096C267.892 48.216 267.098 47.6704 265.511 47.3728C263.924 47.0752 262.138 46.7776 260.154 46.48C258.17 46.1824 256.385 45.736 254.797 45.1408C253.21 44.4464 252.417 43.3552 252.417 41.8672C252.417 40.5776 253.706 39.8336 256.285 39.6352C258.865 39.4368 262.684 39.3376 267.743 39.3376C268.14 39.3376 268.388 38.7424 268.487 37.552C268.685 36.3616 268.785 34.8736 268.785 33.088C268.884 31.2032 268.933 29.2192 268.933 27.136C269.033 25.0528 269.132 23.1184 269.231 21.3328C269.33 19.448 269.479 17.9104 269.677 16.72C269.975 15.5296 270.322 14.9344 270.719 14.9344C271.215 14.9344 272.108 15.0336 273.397 15.232C274.687 15.4304 276.026 15.728 277.415 16.1248C278.804 16.4224 279.994 16.8192 280.986 17.3152C282.077 17.8112 282.623 18.3568 282.623 18.952L280.986 38.296C280.986 38.8912 281.482 39.3376 282.474 39.6352C283.565 39.8336 284.905 39.9824 286.492 40.0816C288.178 40.0816 289.914 40.0816 291.7 40.0816C293.585 40.0816 295.321 40.2304 296.908 40.528C298.594 40.8256 299.933 41.3216 300.925 42.016C302.017 42.6112 302.562 43.5536 302.562 44.8432C302.562 45.0416 302.463 45.3888 302.265 45.8848C302.066 46.2816 301.818 46.48 301.521 46.48C301.322 46.48 301.025 46.3312 300.628 46.0336C300.33 45.736 299.437 45.5872 297.949 45.5872C297.553 45.5872 296.461 45.6368 294.676 45.736C292.89 45.8352 291.005 45.984 289.021 46.1824C287.037 46.3808 285.202 46.6288 283.516 46.9264C281.929 47.1248 281.036 47.4224 280.837 47.8192C280.738 48.0176 280.589 49.208 280.391 51.3904C280.292 53.4736 280.143 56.2512 279.945 59.7232C279.845 63.1952 279.746 67.2128 279.647 71.776C279.548 76.24 279.498 80.952 279.498 85.912C279.498 87.7968 279.597 89.632 279.796 91.4176C279.994 93.2032 280.292 94.84 280.689 96.328C281.085 97.7168 281.581 98.8576 282.177 99.7504C282.871 100.643 283.665 101.09 284.557 101.09C285.847 101.09 287.037 100.544 288.129 99.4528C289.22 98.3616 290.212 96.8736 291.105 94.9888C291.997 93.104 292.791 90.9712 293.485 88.5904C294.18 86.2096 294.775 83.7792 295.271 81.2992C295.569 79.8112 295.916 78.7696 296.313 78.1744C296.709 77.48 297.305 77.1328 298.098 77.1328C298.793 77.1328 299.388 77.3808 299.884 77.8768C300.479 78.2736 300.777 79.2656 300.777 80.8528C300.777 81.8448 300.727 82.4896 300.628 82.7872C300.33 84.5728 299.735 87.0528 298.842 90.2272C298.049 93.3024 296.908 96.3776 295.42 99.4528C294.031 102.429 292.295 105.058 290.212 107.339C288.129 109.621 285.698 110.762 282.921 110.762C280.242 110.762 277.911 109.968 275.927 108.381C273.943 106.893 272.257 104.81 270.868 102.131C269.578 99.3536 268.586 96.1296 267.892 92.4592C267.197 88.6896 266.85 84.672 266.85 80.4064V79.0672ZM355.151 89.7808C354.953 91.1696 354.457 92.8064 353.663 94.6912C352.87 96.576 351.828 98.4112 350.539 100.197C349.348 101.883 347.91 103.322 346.223 104.512C344.636 105.702 342.851 106.298 340.867 106.298C337.891 106.298 335.262 105.157 332.98 102.875C330.798 100.594 329.459 97.3696 328.963 93.2032C328.367 94.7904 327.673 96.6256 326.879 98.7088C326.086 100.792 325.094 102.726 323.903 104.512C322.713 106.298 321.324 107.786 319.737 108.976C318.249 110.266 316.463 110.91 314.38 110.91C313.785 110.91 313.339 110.861 313.041 110.762C312.743 110.662 312.396 110.514 311.999 110.315C311.702 110.216 311.305 110.117 310.809 110.018C310.412 109.918 309.817 109.869 309.023 109.869C306.643 109.869 304.609 109.075 302.923 107.488C301.335 106 300.046 104.066 299.054 101.685C298.062 99.304 297.318 96.7248 296.822 93.9472C296.425 91.0704 296.227 88.392 296.227 85.912C296.227 79.96 296.524 74.3056 297.119 68.9488C297.814 63.592 298.905 58.88 300.393 54.8128C301.881 50.6464 303.815 47.3728 306.196 44.992C308.577 42.512 311.454 41.272 314.827 41.272C316.811 41.272 318.299 41.4704 319.291 41.8672C320.382 42.1648 321.374 42.5616 322.267 43.0576C323.159 43.4544 324.102 43.9008 325.094 44.3968C326.185 44.8928 327.673 45.2896 329.558 45.5872C331.641 46.7776 333.079 48.216 333.873 49.9024C334.766 51.4896 335.311 53.2256 335.51 55.1104C335.807 56.9952 335.907 58.9792 335.807 61.0624C335.708 63.0464 335.807 65.0304 336.105 67.0144C336.105 67.1136 336.303 67.2624 336.7 67.4608C337.196 67.6592 337.742 67.9072 338.337 68.2048C338.932 68.4032 339.428 68.7504 339.825 69.2464C340.321 69.6432 340.569 70.1888 340.569 70.8832V71.4784C339.577 74.0576 338.982 76.3392 338.783 78.3232C338.585 80.3072 338.486 82.688 338.486 85.4656C338.486 86.8544 338.535 88.392 338.635 90.0784C338.833 91.6656 339.081 93.2032 339.379 94.6912C339.775 96.08 340.321 97.2704 341.015 98.2624C341.71 99.1552 342.603 99.6016 343.694 99.6016C344.884 99.6016 345.926 99.0064 346.819 97.816C347.811 96.6256 348.604 95.2864 349.199 93.7984C349.894 92.2112 350.439 90.624 350.836 89.0368C351.332 87.4496 351.63 86.2592 351.729 85.4656C351.927 84.2752 352.423 83.68 353.217 83.68C353.713 83.68 354.159 83.9776 354.556 84.5728C355.052 85.0688 355.3 86.0112 355.3 87.4C355.3 87.7968 355.3 88.1936 355.3 88.5904C355.3 88.888 355.251 89.2848 355.151 89.7808ZM327.623 65.6752C327.623 64.584 327.524 63.2944 327.326 61.8064C327.127 60.3184 326.78 58.9296 326.284 57.64C325.788 56.3504 325.044 55.2592 324.052 54.3664C323.06 53.4736 321.721 53.0272 320.035 53.0272C317.257 53.0272 314.975 54.3168 313.19 56.896C311.503 59.376 310.164 62.352 309.172 65.824C308.18 69.1968 307.535 72.7184 307.238 76.3888C306.94 79.96 306.791 82.7872 306.791 84.8704C306.791 86.4576 306.841 88.392 306.94 90.6736C307.139 92.856 307.436 94.9392 307.833 96.9232C308.23 98.9072 308.775 100.594 309.47 101.982C310.263 103.371 311.255 104.066 312.446 104.066C315.323 104.066 317.505 102.974 318.993 100.792C320.58 98.5104 321.771 95.7328 322.564 92.4592C323.358 89.0864 323.903 85.5152 324.201 81.7456C324.598 77.8768 324.945 74.3552 325.243 71.1808C325.441 69.4944 325.887 68.4528 326.582 68.056C327.276 67.56 327.623 67.2128 327.623 67.0144V65.6752ZM400.131 109.869C400.131 110.861 399.684 111.555 398.792 111.952C397.899 112.349 397.056 112.547 396.262 112.547L393.286 112.25C392.79 112.25 392.542 112.547 392.542 113.142L392.393 114.928C392.492 117.606 392.542 120.979 392.542 125.046C392.542 129.114 392.542 133.032 392.542 136.802C392.542 140.77 392.393 144.638 392.096 148.408C391.897 152.277 391.352 155.699 390.459 158.675C389.566 161.75 388.276 164.181 386.59 165.966C385.003 167.851 382.771 168.794 379.894 168.794C377.414 168.794 374.785 168.645 372.008 168.347C369.329 168.149 366.849 167.554 364.568 166.562C362.385 165.57 360.55 164.082 359.062 162.098C357.673 160.213 356.979 157.634 356.979 154.36C356.979 151.086 357.326 147.714 358.02 144.242C358.814 140.869 359.905 137.546 361.294 134.272C362.683 131.098 364.32 128.022 366.204 125.046C368.188 122.17 370.321 119.59 372.603 117.309C373.793 116.118 375.083 114.878 376.472 113.589C377.96 112.398 379.249 111.406 380.34 110.613V110.464C380.539 108.381 380.688 106.298 380.787 104.214C380.886 102.131 380.936 99.9984 380.936 97.816C380.44 98.7088 379.844 99.9488 379.15 101.536C378.456 103.024 377.612 104.462 376.62 105.851C375.728 107.24 374.686 108.43 373.496 109.422C372.305 110.514 370.966 111.059 369.478 111.059C368.684 111.059 367.99 110.91 367.395 110.613C366.8 110.315 365.956 110.166 364.865 110.166C362.088 109.968 359.756 109.224 357.872 107.934C356.086 106.645 354.648 104.859 353.556 102.578C352.564 100.296 351.87 97.6176 351.473 94.5424C351.076 91.368 350.878 87.8464 350.878 83.9776C350.878 79.3152 351.126 74.504 351.622 69.544C352.217 64.584 353.209 60.0704 354.598 56.0032C355.987 51.8368 357.822 48.464 360.104 45.8848C362.484 43.2064 365.46 41.8672 369.032 41.8672C369.428 41.8672 369.924 42.016 370.52 42.3136C371.214 42.6112 371.908 42.9584 372.603 43.3552C373.396 43.6528 374.14 44 374.835 44.3968C375.628 44.6944 376.224 44.8928 376.62 44.992C378.604 45.3888 380.44 45.8848 382.126 46.48C383.812 47.0752 385.251 47.8688 386.441 48.8608C387.632 49.7536 388.574 50.9936 389.268 52.5808C389.963 54.0688 390.31 55.9536 390.31 58.2352C390.31 59.8224 390.161 61.2608 389.864 62.5504C389.665 63.84 389.566 65.4768 389.566 67.4608C389.566 68.2544 389.864 68.8 390.459 69.0976C391.054 69.3952 391.699 69.6432 392.393 69.8416C393.187 70.04 393.881 70.288 394.476 70.5856C395.072 70.784 395.369 71.28 395.369 72.0736C395.369 72.272 395.121 72.768 394.625 73.5616C394.228 74.256 393.98 74.7024 393.881 74.9008C393.584 75.6944 393.336 76.984 393.137 78.7696C392.939 80.456 392.79 82.3408 392.691 84.424C392.592 86.408 392.492 88.4912 392.393 90.6736C392.393 92.7568 392.393 94.6416 392.393 96.328C392.393 97.6176 392.393 99.3536 392.393 101.536C392.393 103.619 392.443 105.355 392.542 106.744H393.137C393.336 106.744 393.534 106.694 393.732 106.595C393.931 106.595 394.08 106.595 394.179 106.595C395.072 106.595 396.262 106.843 397.75 107.339C399.337 107.934 400.131 108.778 400.131 109.869ZM381.084 63.8896C381.084 62.7984 380.985 61.5584 380.787 60.1696C380.588 58.7808 380.241 57.4912 379.745 56.3008C379.249 55.0112 378.505 53.9696 377.513 53.176C376.62 52.2832 375.48 51.8368 374.091 51.8368C372.206 51.8368 370.42 52.5808 368.734 54.0688C367.147 55.5568 365.708 57.6896 364.419 60.4672C363.228 63.1456 362.236 66.4688 361.443 70.4368C360.748 74.3056 360.401 78.72 360.401 83.68C360.401 85.7632 360.451 87.9456 360.55 90.2272C360.748 92.4096 360.996 94.3936 361.294 96.1792C361.691 97.9648 362.236 99.4528 362.931 100.643C363.724 101.834 364.716 102.429 365.907 102.429C367.99 102.429 369.825 101.536 371.412 99.7504C373 97.9648 374.289 95.7824 375.281 93.2032C376.372 90.5248 377.166 87.7968 377.662 85.0192C378.257 82.1424 378.604 79.6624 378.704 77.5792C378.803 74.7024 378.952 72.768 379.15 71.776C379.348 70.6848 379.547 69.9904 379.745 69.6928C380.34 68.8992 380.688 67.9568 380.787 66.8656C380.985 65.7744 381.084 64.7824 381.084 63.8896ZM380.489 115.672C378.208 117.259 376.025 119.491 373.942 122.368C371.958 125.245 370.222 128.37 368.734 131.742C367.246 135.115 366.056 138.538 365.163 142.01C364.369 145.482 363.972 148.606 363.972 151.384C363.972 152.376 364.072 153.467 364.27 154.658C364.468 155.848 364.766 156.939 365.163 157.931C365.659 159.022 366.304 159.915 367.097 160.61C367.99 161.304 369.032 161.651 370.222 161.651C372.305 161.651 373.992 160.758 375.281 158.973C376.67 157.286 377.712 155.253 378.406 152.872C379.2 150.491 379.696 148.061 379.894 145.581C380.192 143.101 380.34 141.117 380.34 139.629C380.34 139.331 380.34 138.885 380.34 138.29C380.34 137.694 380.34 136.554 380.34 134.867C380.44 133.181 380.489 130.8 380.489 127.725C380.489 124.749 380.489 120.731 380.489 115.672ZM444.557 85.0192C444.557 85.7136 444.309 87.4 443.813 90.0784C443.416 92.6576 442.622 95.4352 441.432 98.4112C440.341 101.288 438.803 103.867 436.819 106.149C434.934 108.43 432.504 109.571 429.528 109.571C426.354 109.571 423.824 108.43 421.939 106.149C420.054 103.966 418.616 101.338 417.624 98.2624C416.632 95.088 415.987 91.8144 415.69 88.4416C415.392 84.9696 415.243 82.0928 415.243 79.8112C415.243 77.232 415.392 74.6528 415.69 72.0736C415.987 69.3952 416.186 66.7664 416.285 64.1872C416.285 63.3936 415.888 62.8976 415.094 62.6992C414.301 62.5008 413.557 62.4016 412.862 62.4016C411.672 62.4016 410.928 62.5504 410.63 62.848C410.333 63.1456 410.134 63.4928 410.035 63.8896L409.44 68.6512C409.043 71.8256 408.597 74.9008 408.101 77.8768C407.704 80.7536 407.208 83.3328 406.613 85.6144C406.117 87.7968 405.472 89.5824 404.678 90.9712C403.984 92.2608 403.141 92.9056 402.149 92.9056H402C401.603 92.9056 401.206 92.8064 400.81 92.608C400.512 92.4096 400.363 91.9136 400.363 91.12C400.363 90.7232 400.462 90.128 400.661 89.3344C401.454 85.8624 401.95 82.9856 402.149 80.704C402.347 78.4224 402.496 76.3888 402.595 74.6032V73.5616C402.595 73.0656 402.595 72.4704 402.595 71.776C402.694 71.0816 402.744 70.2384 402.744 69.2464V65.3776C402.744 64.2864 402.744 63.1456 402.744 61.9552C402.744 60.7648 402.645 59.4752 402.446 58.0864L402 49.3072C402 48.712 402.248 48.1664 402.744 47.6704C403.24 47.1744 403.885 46.728 404.678 46.3312C405.472 45.9344 406.315 45.6368 407.208 45.4384C408.101 45.24 408.894 45.1408 409.589 45.1408C411.275 45.1408 412.118 46.232 412.118 48.4144V49.1584L411.97 52.432V53.3248C411.97 54.0192 412.118 54.4656 412.416 54.664C412.714 54.7632 413.309 54.912 414.202 55.1104H414.648C415.442 55.2096 416.731 55.3088 418.517 55.408C420.302 55.5072 422.088 55.7056 423.874 56.0032C425.659 56.3008 427.197 56.7968 428.486 57.4912C429.875 58.0864 430.57 58.9792 430.57 60.1696C430.57 60.5664 430.47 61.1616 430.272 61.9552C430.074 62.6496 429.826 63.3936 429.528 64.1872C429.23 64.8816 428.982 65.5264 428.784 66.1216C428.586 66.7168 428.486 67.1136 428.486 67.312C426.701 74.1568 425.808 81.2992 425.808 88.7392C425.808 89.3344 425.858 90.4256 425.957 92.0128C426.056 93.6 426.254 95.2368 426.552 96.9232C426.85 98.6096 427.296 100.098 427.891 101.387C428.486 102.677 429.23 103.322 430.123 103.322C431.611 103.322 432.95 102.429 434.141 100.643C435.331 98.7584 436.373 96.6256 437.266 94.2448C438.158 91.7648 438.853 89.2848 439.349 86.8048C439.944 84.3248 440.341 82.4896 440.539 81.2992C440.738 80.208 441.035 79.5632 441.432 79.3648C441.928 79.0672 442.374 78.9184 442.771 78.9184C444.16 78.9184 444.854 79.8112 444.854 81.5968C444.854 81.7952 444.805 82.3408 444.706 83.2336C444.706 84.0272 444.656 84.6224 444.557 85.0192ZM499.156 89.7808C498.958 91.1696 498.462 92.8064 497.668 94.6912C496.874 96.576 495.833 98.4112 494.543 100.197C493.353 101.883 491.914 103.322 490.228 104.512C488.641 105.702 486.855 106.298 484.871 106.298C481.895 106.298 479.266 105.157 476.985 102.875C474.802 100.594 473.463 97.3696 472.967 93.2032C472.372 94.7904 471.678 96.6256 470.884 98.7088C470.09 100.792 469.098 102.726 467.908 104.512C466.718 106.298 465.329 107.786 463.742 108.976C462.254 110.266 460.468 110.91 458.385 110.91C457.79 110.91 457.343 110.861 457.046 110.762C456.748 110.662 456.401 110.514 456.004 110.315C455.706 110.216 455.31 110.117 454.814 110.018C454.417 109.918 453.822 109.869 453.028 109.869C450.647 109.869 448.614 109.075 446.927 107.488C445.34 106 444.05 104.066 443.058 101.685C442.066 99.304 441.322 96.7248 440.826 93.9472C440.43 91.0704 440.231 88.392 440.231 85.912C440.231 79.96 440.529 74.3056 441.124 68.9488C441.818 63.592 442.91 58.88 444.398 54.8128C445.886 50.6464 447.82 47.3728 450.201 44.992C452.582 42.512 455.458 41.272 458.831 41.272C460.815 41.272 462.303 41.4704 463.295 41.8672C464.386 42.1648 465.378 42.5616 466.271 43.0576C467.164 43.4544 468.106 43.9008 469.098 44.3968C470.19 44.8928 471.678 45.2896 473.562 45.5872C475.646 46.7776 477.084 48.216 477.878 49.9024C478.77 51.4896 479.316 53.2256 479.514 55.1104C479.812 56.9952 479.911 58.9792 479.812 61.0624C479.713 63.0464 479.812 65.0304 480.11 67.0144C480.11 67.1136 480.308 67.2624 480.705 67.4608C481.201 67.6592 481.746 67.9072 482.342 68.2048C482.937 68.4032 483.433 68.7504 483.83 69.2464C484.326 69.6432 484.574 70.1888 484.574 70.8832V71.4784C483.582 74.0576 482.986 76.3392 482.788 78.3232C482.59 80.3072 482.49 82.688 482.49 85.4656C482.49 86.8544 482.54 88.392 482.639 90.0784C482.838 91.6656 483.086 93.2032 483.383 94.6912C483.78 96.08 484.326 97.2704 485.02 98.2624C485.714 99.1552 486.607 99.6016 487.698 99.6016C488.889 99.6016 489.93 99.0064 490.823 97.816C491.815 96.6256 492.609 95.2864 493.204 93.7984C493.898 92.2112 494.444 90.624 494.841 89.0368C495.337 87.4496 495.634 86.2592 495.734 85.4656C495.932 84.2752 496.428 83.68 497.222 83.68C497.718 83.68 498.164 83.9776 498.561 84.5728C499.057 85.0688 499.305 86.0112 499.305 87.4C499.305 87.7968 499.305 88.1936 499.305 88.5904C499.305 88.888 499.255 89.2848 499.156 89.7808ZM471.628 65.6752C471.628 64.584 471.529 63.2944 471.33 61.8064C471.132 60.3184 470.785 58.9296 470.289 57.64C469.793 56.3504 469.049 55.2592 468.057 54.3664C467.065 53.4736 465.726 53.0272 464.039 53.0272C461.262 53.0272 458.98 54.3168 457.194 56.896C455.508 59.376 454.169 62.352 453.177 65.824C452.185 69.1968 451.54 72.7184 451.242 76.3888C450.945 79.96 450.796 82.7872 450.796 84.8704C450.796 86.4576 450.846 88.392 450.945 90.6736C451.143 92.856 451.441 94.9392 451.838 96.9232C452.234 98.9072 452.78 100.594 453.474 101.982C454.268 103.371 455.26 104.066 456.45 104.066C459.327 104.066 461.51 102.974 462.998 100.792C464.585 98.5104 465.775 95.7328 466.569 92.4592C467.362 89.0864 467.908 85.5152 468.206 81.7456C468.602 77.8768 468.95 74.3552 469.247 71.1808C469.446 69.4944 469.892 68.4528 470.586 68.056C471.281 67.56 471.628 67.2128 471.628 67.0144V65.6752ZM544.731 69.3952C543.342 72.0736 542.052 74.9008 540.862 77.8768C539.671 80.8528 538.779 83.184 538.183 84.8704C538.084 85.3664 537.787 86.408 537.291 87.9952C536.894 89.5824 536.398 91.368 535.803 93.352C535.307 95.2368 534.86 97.1216 534.463 99.0064C534.067 100.891 533.868 102.429 533.868 103.619C533.868 104.115 533.422 104.562 532.529 104.958C531.636 105.355 530.495 105.554 529.107 105.554C526.924 105.554 525.188 105.256 523.899 104.661C522.609 104.066 521.617 103.123 520.923 101.834C520.327 100.445 519.931 98.6592 519.732 96.4768C519.633 94.2944 519.583 91.6656 519.583 88.5904V77.4304C519.583 76.6368 519.534 75.8432 519.435 75.0496C519.435 74.256 519.286 73.76 518.988 73.5616C518.492 73.76 517.847 75.0496 517.054 77.4304C516.359 79.8112 515.665 82.7376 514.971 86.2096C514.375 89.5824 513.83 93.1536 513.334 96.9232C512.838 100.693 512.59 104.066 512.59 107.042C512.59 108.133 511.995 108.778 510.804 108.976C509.713 109.174 508.473 109.274 507.084 109.274C506.687 109.274 505.993 109.174 505.001 108.976C504.108 108.877 503.166 108.728 502.174 108.53C501.281 108.331 500.438 108.034 499.644 107.637C498.851 107.339 498.355 106.942 498.156 106.446C497.66 105.157 497.263 103.024 496.966 100.048C496.767 97.072 496.668 92.4592 496.668 86.2096C496.668 82.5392 496.718 78.2736 496.817 73.4128C497.015 68.552 497.214 62.848 497.412 56.3008C497.412 55.408 497.363 54.2672 497.263 52.8784C497.164 51.3904 497.115 50.5472 497.115 50.3488C497.115 49.5552 497.412 49.1088 498.007 49.0096C498.702 48.8112 499.198 48.712 499.495 48.712C500.19 48.712 500.983 48.8112 501.876 49.0096C502.868 49.1088 503.811 49.2576 504.703 49.456C505.695 49.6544 506.588 49.9024 507.382 50.2C508.175 50.3984 508.721 50.5968 509.019 50.7952V86.656C509.515 84.672 510.06 82.3904 510.655 79.8112C511.35 77.1328 512.094 74.504 512.887 71.9248C513.78 69.3456 514.723 66.9648 515.715 64.7824C516.707 62.6 517.748 61.0128 518.839 60.0208C519.236 59.7232 519.98 59.5248 521.071 59.4256C522.163 59.2272 523.055 59.128 523.75 59.128C524.246 59.128 524.841 59.2272 525.535 59.4256C526.329 59.5248 527.073 59.7232 527.767 60.0208C528.462 60.3184 529.057 60.7152 529.553 61.2112C530.148 61.608 530.495 62.104 530.595 62.6992V86.8048V88.144C530.595 88.7392 530.694 89.0368 530.892 89.0368C531.091 89.0368 531.636 87.6976 532.529 85.0192C533.521 82.3408 534.662 79.1664 535.951 75.496C537.241 71.8256 538.63 68.056 540.118 64.1872C541.606 60.3184 542.945 57.2432 544.135 54.9616C544.334 54.5648 544.979 54.3664 546.07 54.3664C547.26 54.2672 548.302 54.2176 549.195 54.2176C549.889 54.2176 550.831 54.4656 552.022 54.9616C553.212 55.3584 554.353 55.9536 555.444 56.7472C556.635 57.5408 557.627 58.4336 558.42 59.4256C559.313 60.4176 559.759 61.4592 559.759 62.5504C559.759 62.7488 559.462 63.344 558.867 64.336C558.271 65.2288 557.875 66.1712 557.676 67.1632C556.982 69.9408 556.486 72.6688 556.188 75.3472C555.99 78.0256 555.891 81.448 555.891 85.6144C555.891 87.4 555.94 89.1856 556.039 90.9712C556.238 92.7568 556.486 94.3936 556.783 95.8816C557.18 97.2704 557.676 98.4112 558.271 99.304C558.867 100.197 559.66 100.643 560.652 100.643C562.041 100.643 563.281 100.197 564.372 99.304C565.463 98.312 566.406 97.0224 567.199 95.4352C567.993 93.848 568.687 92.0128 569.283 89.9296C569.878 87.7472 570.374 85.5152 570.771 83.2336C571.267 80.8528 572.159 79.6624 573.449 79.6624C574.243 79.6624 574.739 79.8608 574.937 80.2576C575.235 80.6544 575.383 81.5472 575.383 82.936C575.383 83.7296 575.334 84.2752 575.235 84.5728C575.135 85.8624 574.689 87.896 573.895 90.6736C573.201 93.352 572.159 96.08 570.771 98.8576C569.481 101.536 567.844 103.917 565.86 106C563.876 107.984 561.595 108.976 559.015 108.976C555.94 108.976 553.411 108.232 551.427 106.744C549.443 105.355 547.905 103.47 546.814 101.09C545.723 98.6096 544.929 95.7824 544.433 92.608C544.036 89.4336 543.838 86.1104 543.838 82.6384V81.5968L544.731 69.3952Z" fill="black"/>
</svg>
